<?xml version="1.0" encoding="UTF-8" standalone="no"?>
<!-- Created with Inkscape (http://www.inkscape.org/) -->

<svg
   xmlns:dc="http://purl.org/dc/elements/1.1/"
   xmlns:cc="http://creativecommons.org/ns#"
   xmlns:rdf="http://www.w3.org/1999/02/22-rdf-syntax-ns#"
   xmlns:svg="http://www.w3.org/2000/svg"
   xmlns="http://www.w3.org/2000/svg"
   xmlns:sodipodi="http://sodipodi.sourceforge.net/DTD/sodipodi-0.dtd"
   xmlns:inkscape="http://www.inkscape.org/namespaces/inkscape"
   version="1.1"
   id="svg2982"
   xml:space="preserve"
   width="1000"
   height="297.7724"
   viewBox="0 0 999.99999 297.77239"
   sodipodi:docname="a.svg"
   inkscape:version="0.92.4 (5da689c313, 2019-01-14)"><metadata
     id="metadata2988"><rdf:RDF><cc:Work
         rdf:about=""><dc:format>image/svg+xml</dc:format><dc:type
           rdf:resource="http://purl.org/dc/dcmitype/StillImage" /><dc:title></dc:title></cc:Work></rdf:RDF></metadata><defs
     id="defs2986"><radialGradient
       fx="0"
       fy="0"
       cx="0"
       cy="0"
       r="1"
       gradientUnits="userSpaceOnUse"
       gradientTransform="matrix(0,633.3686,464.03933,0,297.638,420.94475)"
       spreadMethod="pad"
       id="radialGradient3008"><stop
         style="stop-opacity:1;stop-color:#ffffff"
         offset="0"
         id="stop3004" /><stop
         style="stop-opacity:1;stop-color:#cccccb"
         offset="1"
         id="stop3006" /></radialGradient><clipPath
       clipPathUnits="userSpaceOnUse"
       id="clipPath3038"><path
         d="M 0,0 H 595.275 V 841.89 H 0 Z"
         id="path3036"
         inkscape:connector-curvature="0" /></clipPath><clipPath
       clipPathUnits="userSpaceOnUse"
       id="clipPath3046"><path
         d="M -31.278,702.861 H 46.7041 V 661.16 H -31.278 Z"
         id="path3044"
         inkscape:connector-curvature="0" /></clipPath><linearGradient
       x1="0"
       y1="0"
       x2="1"
       y2="0"
       gradientUnits="userSpaceOnUse"
       gradientTransform="matrix(-46.705733,1.112182,1.112182,46.705733,56.683523,680.69385)"
       spreadMethod="pad"
       id="linearGradient3056"><stop
         style="stop-opacity:1;stop-color:#4d4d4e"
         offset="0"
         id="stop3052" /><stop
         style="stop-opacity:1;stop-color:#ffffff"
         offset="1"
         id="stop3054" /></linearGradient><clipPath
       clipPathUnits="userSpaceOnUse"
       id="clipPath3078"><path
         d="M 78.9978,702.861 H 146.788 V 661.16 H 78.9978 Z"
         id="path3076"
         inkscape:connector-curvature="0" /></clipPath><linearGradient
       x1="0"
       y1="0"
       x2="1"
       y2="0"
       gradientUnits="userSpaceOnUse"
       gradientTransform="matrix(46.705796,-1.6680572,-1.6680572,-46.705796,74.663909,683.55252)"
       spreadMethod="pad"
       id="linearGradient3088"><stop
         style="stop-opacity:1;stop-color:#4d4d4e"
         offset="0"
         id="stop3084" /><stop
         style="stop-opacity:1;stop-color:#ffffff"
         offset="1"
         id="stop3086" /></linearGradient><clipPath
       clipPathUnits="userSpaceOnUse"
       id="clipPath3110"><path
         d="M -63.6799,797.648 H 50.1234 V 754.011 H -63.6799 Z"
         id="path3108"
         inkscape:connector-curvature="0" /></clipPath><linearGradient
       x1="0"
       y1="0"
       x2="1"
       y2="0"
       gradientUnits="userSpaceOnUse"
       gradientTransform="matrix(-3.555844,49.461318,49.461318,3.555844,-4.7676836,730.31835)"
       spreadMethod="pad"
       id="linearGradient3120"><stop
         style="stop-opacity:1;stop-color:#4d4d4e"
         offset="0"
         id="stop3116" /><stop
         style="stop-opacity:1;stop-color:#ffffff"
         offset="1"
         id="stop3118" /></linearGradient><clipPath
       clipPathUnits="userSpaceOnUse"
       id="clipPath3142"><path
         d="M 29.0306,712.309 H 86.8547 V 673.085 H 29.0306 Z"
         id="path3140"
         inkscape:connector-curvature="0" /></clipPath><linearGradient
       x1="0"
       y1="0"
       x2="1"
       y2="0"
       gradientUnits="userSpaceOnUse"
       gradientTransform="matrix(2.7797965,-30.581009,-30.581009,-2.7797965,55.170828,723.18838)"
       spreadMethod="pad"
       id="linearGradient3152"><stop
         style="stop-opacity:1;stop-color:#4d4d4e"
         offset="0"
         id="stop3148" /><stop
         style="stop-opacity:1;stop-color:#ffffff"
         offset="1"
         id="stop3150" /></linearGradient><clipPath
       clipPathUnits="userSpaceOnUse"
       id="clipPath3174"><path
         d="m 137.398,754.012 h 85.379 v -51.151 h -85.379 z"
         id="path3172"
         inkscape:connector-curvature="0" /></clipPath><linearGradient
       x1="0"
       y1="0"
       x2="1"
       y2="0"
       gradientUnits="userSpaceOnUse"
       gradientTransform="matrix(-7.8571698,37.519854,37.519854,7.8571698,188.2027,689.68381)"
       spreadMethod="pad"
       id="linearGradient3184"><stop
         style="stop-opacity:1;stop-color:#4d4d4e"
         offset="0"
         id="stop3180" /><stop
         style="stop-opacity:1;stop-color:#ffffff"
         offset="1"
         id="stop3182" /></linearGradient><clipPath
       clipPathUnits="userSpaceOnUse"
       id="clipPath3206"><path
         d="m 191.468,661.16 h 46.446 v -40.894 h -46.446 z"
         id="path3204"
         inkscape:connector-curvature="0" /></clipPath><linearGradient
       x1="0"
       y1="0"
       x2="1"
       y2="0"
       gradientUnits="userSpaceOnUse"
       gradientTransform="matrix(7.2279089,-43.370731,-43.370731,-7.2279089,210.00759,671.11119)"
       spreadMethod="pad"
       id="linearGradient3216"><stop
         style="stop-opacity:1;stop-color:#4d4d4e"
         offset="0"
         id="stop3212" /><stop
         style="stop-opacity:1;stop-color:#ffffff"
         offset="1"
         id="stop3214" /></linearGradient><clipPath
       clipPathUnits="userSpaceOnUse"
       id="clipPath3238"><path
         d="M 194.695,754.012 H 275.23 V 712.311 H 194.695 Z"
         id="path3236"
         inkscape:connector-curvature="0" /></clipPath><linearGradient
       x1="0"
       y1="0"
       x2="1"
       y2="0"
       gradientUnits="userSpaceOnUse"
       gradientTransform="matrix(55.046368,22.518942,22.518942,-55.046368,189.72814,714.65695)"
       spreadMethod="pad"
       id="linearGradient3248"><stop
         style="stop-opacity:1;stop-color:#4d4d4e"
         offset="0"
         id="stop3244" /><stop
         style="stop-opacity:1;stop-color:#ffffff"
         offset="1"
         id="stop3246" /></linearGradient><clipPath
       clipPathUnits="userSpaceOnUse"
       id="clipPath3270"><path
         d="M 84.5191,754.012 H 172.309 V 712.309 H 84.5191 Z"
         id="path3268"
         inkscape:connector-curvature="0" /></clipPath><linearGradient
       x1="0"
       y1="0"
       x2="1"
       y2="0"
       gradientUnits="userSpaceOnUse"
       gradientTransform="matrix(-46.635901,-14.200639,-14.200639,46.635901,167.73394,745.13375)"
       spreadMethod="pad"
       id="linearGradient3280"><stop
         style="stop-opacity:1;stop-color:#4d4d4e"
         offset="0"
         id="stop3276" /><stop
         style="stop-opacity:1;stop-color:#ffffff"
         offset="1"
         id="stop3278" /></linearGradient><linearGradient
       x1="0"
       y1="0"
       x2="1"
       y2="0"
       gradientUnits="userSpaceOnUse"
       gradientTransform="matrix(-55.455069,0,0,55.455069,548.89385,585.31456)"
       spreadMethod="pad"
       id="linearGradient3314"><stop
         style="stop-opacity:1;stop-color:#e6e6e6"
         offset="0"
         id="stop3308" /><stop
         style="stop-opacity:1;stop-color:#b3b4b4"
         offset="0.482626"
         id="stop3310" /><stop
         style="stop-opacity:1;stop-color:#e6e6e6"
         offset="1"
         id="stop3312" /></linearGradient><linearGradient
       x1="0"
       y1="0"
       x2="1"
       y2="0"
       gradientUnits="userSpaceOnUse"
       gradientTransform="matrix(-55.455069,0,0,55.455069,548.89385,568.94998)"
       spreadMethod="pad"
       id="linearGradient3336"><stop
         style="stop-opacity:1;stop-color:#e6e6e6"
         offset="0"
         id="stop3330" /><stop
         style="stop-opacity:1;stop-color:#b3b4b4"
         offset="0.482626"
         id="stop3332" /><stop
         style="stop-opacity:1;stop-color:#e6e6e6"
         offset="1"
         id="stop3334" /></linearGradient><linearGradient
       x1="0"
       y1="0"
       x2="1"
       y2="0"
       gradientUnits="userSpaceOnUse"
       gradientTransform="matrix(-55.455069,0,0,55.455069,398.7678,585.31456)"
       spreadMethod="pad"
       id="linearGradient3360"><stop
         style="stop-opacity:1;stop-color:#e6e6e6"
         offset="0"
         id="stop3354" /><stop
         style="stop-opacity:1;stop-color:#b3b4b4"
         offset="0.482626"
         id="stop3356" /><stop
         style="stop-opacity:1;stop-color:#e6e6e6"
         offset="1"
         id="stop3358" /></linearGradient><linearGradient
       x1="0"
       y1="0"
       x2="1"
       y2="0"
       gradientUnits="userSpaceOnUse"
       gradientTransform="matrix(-55.455069,0,0,55.455069,398.7678,568.94998)"
       spreadMethod="pad"
       id="linearGradient3382"><stop
         style="stop-opacity:1;stop-color:#e6e6e6"
         offset="0"
         id="stop3376" /><stop
         style="stop-opacity:1;stop-color:#b3b4b4"
         offset="0.482626"
         id="stop3378" /><stop
         style="stop-opacity:1;stop-color:#e6e6e6"
         offset="1"
         id="stop3380" /></linearGradient><linearGradient
       x1="0"
       y1="0"
       x2="1"
       y2="0"
       gradientUnits="userSpaceOnUse"
       gradientTransform="matrix(-55.455069,0,0,55.455069,245.25471,585.31456)"
       spreadMethod="pad"
       id="linearGradient3406"><stop
         style="stop-opacity:1;stop-color:#e6e6e6"
         offset="0"
         id="stop3400" /><stop
         style="stop-opacity:1;stop-color:#b3b4b4"
         offset="0.482626"
         id="stop3402" /><stop
         style="stop-opacity:1;stop-color:#e6e6e6"
         offset="1"
         id="stop3404" /></linearGradient><linearGradient
       x1="0"
       y1="0"
       x2="1"
       y2="0"
       gradientUnits="userSpaceOnUse"
       gradientTransform="matrix(-55.455069,0,0,55.455069,245.25471,568.94998)"
       spreadMethod="pad"
       id="linearGradient3428"><stop
         style="stop-opacity:1;stop-color:#e6e6e6"
         offset="0"
         id="stop3422" /><stop
         style="stop-opacity:1;stop-color:#b3b4b4"
         offset="0.482626"
         id="stop3424" /><stop
         style="stop-opacity:1;stop-color:#e6e6e6"
         offset="1"
         id="stop3426" /></linearGradient><linearGradient
       x1="0"
       y1="0"
       x2="1"
       y2="0"
       gradientUnits="userSpaceOnUse"
       gradientTransform="matrix(-55.455151,0,0,55.455151,99.657188,585.31293)"
       spreadMethod="pad"
       id="linearGradient3452"><stop
         style="stop-opacity:1;stop-color:#e6e6e6"
         offset="0"
         id="stop3446" /><stop
         style="stop-opacity:1;stop-color:#b3b4b4"
         offset="0.482626"
         id="stop3448" /><stop
         style="stop-opacity:1;stop-color:#e6e6e6"
         offset="1"
         id="stop3450" /></linearGradient><linearGradient
       x1="0"
       y1="0"
       x2="1"
       y2="0"
       gradientUnits="userSpaceOnUse"
       gradientTransform="matrix(-55.455151,0,0,55.455151,99.657188,568.94998)"
       spreadMethod="pad"
       id="linearGradient3474"><stop
         style="stop-opacity:1;stop-color:#e6e6e6"
         offset="0"
         id="stop3468" /><stop
         style="stop-opacity:1;stop-color:#b3b4b4"
         offset="0.482626"
         id="stop3470" /><stop
         style="stop-opacity:1;stop-color:#e6e6e6"
         offset="1"
         id="stop3472" /></linearGradient><clipPath
       clipPathUnits="userSpaceOnUse"
       id="clipPath3486"><path
         d="M 0,0 H 595.275 V 841.89 H 0 Z"
         id="path3484"
         inkscape:connector-curvature="0" /></clipPath><clipPath
       clipPathUnits="userSpaceOnUse"
       id="clipPath3514"><path
         d="m 546.33,345.513 h 77.982 V 303.812 H 546.33 Z"
         id="path3512"
         inkscape:connector-curvature="0" /></clipPath><linearGradient
       x1="0"
       y1="0"
       x2="1"
       y2="0"
       gradientUnits="userSpaceOnUse"
       gradientTransform="matrix(46.705733,-1.112182,-1.112182,-46.705733,536.35051,325.97846)"
       spreadMethod="pad"
       id="linearGradient3524"><stop
         style="stop-opacity:1;stop-color:#4d4d4e"
         offset="0"
         id="stop3520" /><stop
         style="stop-opacity:1;stop-color:#ffffff"
         offset="1"
         id="stop3522" /></linearGradient><clipPath
       clipPathUnits="userSpaceOnUse"
       id="clipPath3546"><path
         d="m 446.246,345.513 h 67.791 v -41.701 h -67.791 z"
         id="path3544"
         inkscape:connector-curvature="0" /></clipPath><linearGradient
       x1="0"
       y1="0"
       x2="1"
       y2="0"
       gradientUnits="userSpaceOnUse"
       gradientTransform="matrix(-46.706415,1.6680793,1.6680793,46.706415,518.37109,323.11976)"
       spreadMethod="pad"
       id="linearGradient3556"><stop
         style="stop-opacity:1;stop-color:#4d4d4e"
         offset="0"
         id="stop3552" /><stop
         style="stop-opacity:1;stop-color:#ffffff"
         offset="1"
         id="stop3554" /></linearGradient><clipPath
       clipPathUnits="userSpaceOnUse"
       id="clipPath3578"><path
         d="M 542.911,252.661 H 656.714 V 209.024 H 542.911 Z"
         id="path3576"
         inkscape:connector-curvature="0" /></clipPath><linearGradient
       x1="0"
       y1="0"
       x2="1"
       y2="0"
       gradientUnits="userSpaceOnUse"
       gradientTransform="matrix(3.5558482,-49.461377,-49.461377,-3.5558482,597.80169,276.35312)"
       spreadMethod="pad"
       id="linearGradient3588"><stop
         style="stop-opacity:1;stop-color:#4d4d4e"
         offset="0"
         id="stop3584" /><stop
         style="stop-opacity:1;stop-color:#ffffff"
         offset="1"
         id="stop3586" /></linearGradient><clipPath
       clipPathUnits="userSpaceOnUse"
       id="clipPath3610"><path
         d="m 506.18,333.586 h 57.825 V 294.363 H 506.18 Z"
         id="path3608"
         inkscape:connector-curvature="0" /></clipPath><linearGradient
       x1="0"
       y1="0"
       x2="1"
       y2="0"
       gradientUnits="userSpaceOnUse"
       gradientTransform="matrix(-2.7797965,30.581009,30.581009,2.7797965,537.86402,283.48312)"
       spreadMethod="pad"
       id="linearGradient3620"><stop
         style="stop-opacity:1;stop-color:#4d4d4e"
         offset="0"
         id="stop3616" /><stop
         style="stop-opacity:1;stop-color:#ffffff"
         offset="1"
         id="stop3618" /></linearGradient><clipPath
       clipPathUnits="userSpaceOnUse"
       id="clipPath3642"><path
         d="m 365.879,303.812 h 85.379 v -51.151 h -85.379 z"
         id="path3640"
         inkscape:connector-curvature="0" /></clipPath><linearGradient
       x1="0"
       y1="0"
       x2="1"
       y2="0"
       gradientUnits="userSpaceOnUse"
       gradientTransform="matrix(7.8570846,-37.519446,-37.519446,-7.8570846,400.45283,316.98841)"
       spreadMethod="pad"
       id="linearGradient3652"><stop
         style="stop-opacity:1;stop-color:#4d4d4e"
         offset="0"
         id="stop3648" /><stop
         style="stop-opacity:1;stop-color:#ffffff"
         offset="1"
         id="stop3650" /></linearGradient><clipPath
       clipPathUnits="userSpaceOnUse"
       id="clipPath3674"><path
         d="m 350.741,386.406 h 46.447 v -40.893 h -46.447 z"
         id="path3672"
         inkscape:connector-curvature="0" /></clipPath><linearGradient
       x1="0"
       y1="0"
       x2="1"
       y2="0"
       gradientUnits="userSpaceOnUse"
       gradientTransform="matrix(-7.2279109,43.370743,43.370743,7.2279109,378.64782,335.56112)"
       spreadMethod="pad"
       id="linearGradient3684"><stop
         style="stop-opacity:1;stop-color:#4d4d4e"
         offset="0"
         id="stop3680" /><stop
         style="stop-opacity:1;stop-color:#ffffff"
         offset="1"
         id="stop3682" /></linearGradient><clipPath
       clipPathUnits="userSpaceOnUse"
       id="clipPath3706"><path
         d="m 313.426,294.363 h 80.535 v -41.702 h -80.535 z"
         id="path3704"
         inkscape:connector-curvature="0" /></clipPath><linearGradient
       x1="0"
       y1="0"
       x2="1"
       y2="0"
       gradientUnits="userSpaceOnUse"
       gradientTransform="matrix(-55.046419,-22.518963,-22.518963,55.046419,398.92728,292.01612)"
       spreadMethod="pad"
       id="linearGradient3716"><stop
         style="stop-opacity:1;stop-color:#4d4d4e"
         offset="0"
         id="stop3712" /><stop
         style="stop-opacity:1;stop-color:#ffffff"
         offset="1"
         id="stop3714" /></linearGradient><clipPath
       clipPathUnits="userSpaceOnUse"
       id="clipPath3738"><path
         d="m 416.346,294.363 h 87.79 v -41.702 h -87.79 z"
         id="path3736"
         inkscape:connector-curvature="0" /></clipPath><linearGradient
       x1="0"
       y1="0"
       x2="1"
       y2="0"
       gradientUnits="userSpaceOnUse"
       gradientTransform="matrix(46.635689,14.200574,14.200574,-46.635689,420.92164,261.53857)"
       spreadMethod="pad"
       id="linearGradient3748"><stop
         style="stop-opacity:1;stop-color:#4d4d4e"
         offset="0"
         id="stop3744" /><stop
         style="stop-opacity:1;stop-color:#ffffff"
         offset="1"
         id="stop3746" /></linearGradient><linearGradient
       x1="0"
       y1="0"
       x2="1"
       y2="0"
       gradientUnits="userSpaceOnUse"
       gradientTransform="matrix(55.455151,0,0,-55.455151,44.202041,421.35857)"
       spreadMethod="pad"
       id="linearGradient3782"><stop
         style="stop-opacity:1;stop-color:#e6e6e6"
         offset="0"
         id="stop3776" /><stop
         style="stop-opacity:1;stop-color:#b3b4b4"
         offset="0.517374"
         id="stop3778" /><stop
         style="stop-opacity:1;stop-color:#e6e6e6"
         offset="1"
         id="stop3780" /></linearGradient><linearGradient
       x1="0"
       y1="0"
       x2="1"
       y2="0"
       gradientUnits="userSpaceOnUse"
       gradientTransform="matrix(55.455151,0,0,-55.455151,44.202041,437.72234)"
       spreadMethod="pad"
       id="linearGradient3804"><stop
         style="stop-opacity:1;stop-color:#e6e6e6"
         offset="0"
         id="stop3798" /><stop
         style="stop-opacity:1;stop-color:#b3b4b4"
         offset="0.517374"
         id="stop3800" /><stop
         style="stop-opacity:1;stop-color:#e6e6e6"
         offset="1"
         id="stop3802" /></linearGradient><linearGradient
       x1="0"
       y1="0"
       x2="1"
       y2="0"
       gradientUnits="userSpaceOnUse"
       gradientTransform="matrix(55.455069,0,0,-55.455069,189.79964,421.35857)"
       spreadMethod="pad"
       id="linearGradient3828"><stop
         style="stop-opacity:1;stop-color:#e6e6e6"
         offset="0"
         id="stop3822" /><stop
         style="stop-opacity:1;stop-color:#b3b4b4"
         offset="0.517374"
         id="stop3824" /><stop
         style="stop-opacity:1;stop-color:#e6e6e6"
         offset="1"
         id="stop3826" /></linearGradient><linearGradient
       x1="0"
       y1="0"
       x2="1"
       y2="0"
       gradientUnits="userSpaceOnUse"
       gradientTransform="matrix(55.455069,0,0,-55.455069,189.79964,437.72234)"
       spreadMethod="pad"
       id="linearGradient3852"><stop
         style="stop-opacity:1;stop-color:#e6e6e6"
         offset="0"
         id="stop3846" /><stop
         style="stop-opacity:1;stop-color:#b3b4b4"
         offset="0.517374"
         id="stop3848" /><stop
         style="stop-opacity:1;stop-color:#e6e6e6"
         offset="1"
         id="stop3850" /></linearGradient><linearGradient
       x1="0"
       y1="0"
       x2="1"
       y2="0"
       gradientUnits="userSpaceOnUse"
       gradientTransform="matrix(55.455069,0,0,-55.455069,343.40073,421.35857)"
       spreadMethod="pad"
       id="linearGradient3874"><stop
         style="stop-opacity:1;stop-color:#e6e6e6"
         offset="0"
         id="stop3868" /><stop
         style="stop-opacity:1;stop-color:#b3b4b4"
         offset="0.517374"
         id="stop3870" /><stop
         style="stop-opacity:1;stop-color:#e6e6e6"
         offset="1"
         id="stop3872" /></linearGradient><linearGradient
       x1="0"
       y1="0"
       x2="1"
       y2="0"
       gradientUnits="userSpaceOnUse"
       gradientTransform="matrix(55.455069,0,0,-55.455069,343.40073,437.72234)"
       spreadMethod="pad"
       id="linearGradient3896"><stop
         style="stop-opacity:1;stop-color:#e6e6e6"
         offset="0"
         id="stop3890" /><stop
         style="stop-opacity:1;stop-color:#b3b4b4"
         offset="0.517374"
         id="stop3892" /><stop
         style="stop-opacity:1;stop-color:#e6e6e6"
         offset="1"
         id="stop3894" /></linearGradient><linearGradient
       x1="0"
       y1="0"
       x2="1"
       y2="0"
       gradientUnits="userSpaceOnUse"
       gradientTransform="matrix(55.455053,0,0,-55.455053,493.37692,421.35857)"
       spreadMethod="pad"
       id="linearGradient3920"><stop
         style="stop-opacity:1;stop-color:#e6e6e6"
         offset="0"
         id="stop3914" /><stop
         style="stop-opacity:1;stop-color:#b3b4b4"
         offset="0.517374"
         id="stop3916" /><stop
         style="stop-opacity:1;stop-color:#e6e6e6"
         offset="1"
         id="stop3918" /></linearGradient><linearGradient
       x1="0"
       y1="0"
       x2="1"
       y2="0"
       gradientUnits="userSpaceOnUse"
       gradientTransform="matrix(55.455053,0,0,-55.455053,493.37692,437.72234)"
       spreadMethod="pad"
       id="linearGradient3942"><stop
         style="stop-opacity:1;stop-color:#e6e6e6"
         offset="0"
         id="stop3936" /><stop
         style="stop-opacity:1;stop-color:#b3b4b4"
         offset="0.517374"
         id="stop3938" /><stop
         style="stop-opacity:1;stop-color:#e6e6e6"
         offset="1"
         id="stop3940" /></linearGradient><clipPath
       clipPathUnits="userSpaceOnUse"
       id="clipPath3954"><path
         d="M 0,0 H 595.275 V 841.89 H 0 Z"
         id="path3952"
         inkscape:connector-curvature="0" /></clipPath><linearGradient
       x1="0"
       y1="0"
       x2="1"
       y2="0"
       gradientUnits="userSpaceOnUse"
       gradientTransform="matrix(570.48009,0,0,-570.48009,12.520483,503.33726)"
       spreadMethod="pad"
       id="linearGradient3978"><stop
         style="stop-opacity:1;stop-color:#e6e6e6"
         offset="0"
         id="stop3972" /><stop
         style="stop-opacity:1;stop-color:#b3b4b4"
         offset="0.482626"
         id="stop3974" /><stop
         style="stop-opacity:1;stop-color:#e6e6e6"
         offset="1"
         id="stop3976" /></linearGradient><clipPath
       clipPathUnits="userSpaceOnUse"
       id="clipPath3988"><path
         d="m 179.198,468.711 h 236.88 v 68.629 h -236.88 z"
         id="path3986"
         inkscape:connector-curvature="0" /></clipPath></defs><sodipodi:namedview
     pagecolor="#ffffff"
     bordercolor="#666666"
     borderopacity="1"
     objecttolerance="10"
     gridtolerance="10"
     guidetolerance="10"
     inkscape:pageopacity="0"
     inkscape:pageshadow="2"
     inkscape:window-width="1920"
     inkscape:window-height="1017"
     id="namedview2984"
     showgrid="false"
     fit-margin-top="0"
     fit-margin-left="0"
     fit-margin-right="0"
     fit-margin-bottom="0"
     inkscape:zoom="0.59465202"
     inkscape:cx="891.37438"
     inkscape:cy="173.55079"
     inkscape:window-x="1912"
     inkscape:window-y="-8"
     inkscape:window-maximized="1"
     inkscape:current-layer="g2990" /><g
     id="g2990"
     inkscape:groupmode="layer"
     inkscape:label="mh-product-catalog-eu-2018"
     transform="matrix(1.3333333,0,0,-1.3333333,-239.04108,922.87722)"><g
       id="g3990"
       transform="matrix(3.2597787,0,0,3.2597787,241.13277,617.89137)"
       style="fill:#005382;fill-opacity:1"><path
         d="m 0,0 5.637,0.563 v -3.054 c 1.833,2.068 3.242,3.243 6.108,3.243 2.35,0 4.464,-1.033 6.155,-3.054 2.115,2.066 3.853,3.054 6.719,3.054 3.665,0 7.753,-2.115 7.753,-7.613 v -17.006 l -5.967,-0.377 v 16.35 c 0.187,2.914 -1.457,3.478 -3.477,3.478 -2.443,0 -3.759,-1.833 -3.759,-4.793 v -14.658 l -5.967,-0.377 v 16.35 c 0.188,2.914 -1.457,3.478 -3.477,3.478 -2.443,0 -3.759,-1.833 -3.759,-4.793 V -23.867 L 0,-24.244 Z"
         style="fill:#005382;fill-opacity:1;fill-rule:nonzero;stroke:none"
         id="path3992"
         inkscape:connector-curvature="0" /></g><g
       id="g3994"
       transform="matrix(3.2597787,0,0,3.2597787,390.00001,553.86769)"
       style="fill:#005382;fill-opacity:1"><path
         d="M 0,0 C 2.114,0 4.369,1.27 4.369,3.431 4.369,5.546 2.114,6.862 0,6.862 -2.114,6.862 -4.369,5.546 -4.369,3.431 -4.369,1.27 -2.114,0 0,0 m -5.779,19.734 c 2.255,0.424 4.605,0.658 6.906,0.658 4.276,0 8.975,-1.88 8.975,-6.718 V -4.227 L 4.651,-4.792 v 2.068 c -1.644,-1.409 -3.759,-2.255 -5.967,-2.255 -5.074,0 -9.021,2.959 -9.021,8.41 0,4.321 3.619,8.128 8.082,8.128 2.584,0 4.275,-0.422 6.578,-1.598 0.046,0.517 0.141,0.987 0.141,1.598 0,3.242 -2.35,3.853 -5.121,3.853 -2.35,0 -4.605,-0.564 -6.766,-1.411 z"
         style="fill:#005382;fill-opacity:1;fill-rule:nonzero;stroke:none"
         id="path3996"
         inkscape:connector-curvature="0" /></g><g
       id="g3998"
       transform="matrix(3.2597787,0,0,3.2597787,437.93604,617.89137)"
       style="fill:#005382;fill-opacity:1"><path
         d="M 0,0 5.639,0.563 V -2.725 H 5.733 C 7.752,0 9.726,0.752 13.062,0.752 c 4.933,0 8.222,-3.149 8.222,-8.222 v -16.397 l -5.967,-0.377 v 15.176 c 0,2.538 -1.174,4.652 -3.852,4.652 -3.759,0 -5.497,-2.866 -5.497,-5.873 V -23.867 L 0,-24.244 Z"
         style="fill:#005382;fill-opacity:1;fill-rule:nonzero;stroke:none"
         id="path4000"
         inkscape:connector-curvature="0" /></g><g
       id="g4002"
       transform="matrix(3.2597787,0,0,3.2597787,523.09449,689.70658)"
       style="fill:#005382;fill-opacity:1"><path
         d="m 0,0 5.967,0.752 v -25.038 h 0.094 c 1.691,2.255 3.664,3.007 7,3.007 4.933,0 8.223,-3.149 8.223,-8.222 v -16.397 l -5.967,-0.377 v 15.176 c 0,2.538 -1.176,4.652 -3.853,4.652 -3.759,0 -5.497,-2.866 -5.497,-5.873 V -45.898 L 0,-46.275 Z"
         style="fill:#005382;fill-opacity:1;fill-rule:nonzero;stroke:none"
         id="path4004"
         inkscape:connector-curvature="0" /></g><g
       id="g4006"
       transform="matrix(3.2597787,0,0,3.2597787,636.8888,553.86769)"
       style="fill:#005382;fill-opacity:1"><path
         d="M 0,0 C 2.114,0 4.37,1.27 4.37,3.431 4.37,5.546 2.114,6.862 0,6.862 -2.115,6.862 -4.37,5.546 -4.37,3.431 -4.37,1.27 -2.115,0 0,0 m -5.779,19.734 c 2.255,0.424 4.605,0.658 6.906,0.658 4.277,0 8.974,-1.88 8.974,-6.718 V -4.227 l -5.45,-0.565 v 2.068 c -1.644,-1.409 -3.758,-2.255 -5.966,-2.255 -5.074,0 -9.021,2.959 -9.021,8.41 0,4.321 3.616,8.128 8.081,8.128 2.584,0 4.275,-0.422 6.577,-1.598 0.048,0.517 0.142,0.987 0.142,1.598 0,3.242 -2.35,3.853 -5.122,3.853 -2.349,0 -4.604,-0.564 -6.766,-1.411 z"
         style="fill:#005382;fill-opacity:1;fill-rule:nonzero;stroke:none"
         id="path4008"
         inkscape:connector-curvature="0" /></g><g
       id="g4010"
       transform="matrix(3.2597787,0,0,3.2597787,689.11404,631.36632)"
       style="fill:#005382;fill-opacity:1"><path
         d="m 0,0 5.968,2.678 v -6.812 h 5.403 V -9.302 H 5.968 v -10.196 c 0,-2.302 0.986,-3.805 4.463,-3.805 0.657,0 1.409,0.046 2.067,0.094 l -1.457,-5.357 c -0.563,-0.14 -1.597,-0.187 -2.349,-0.187 -5.026,0 -8.692,2.678 -8.692,7.986 v 11.465 h -3.664 l 1.315,5.168 H 0 Z"
         style="fill:#005382;fill-opacity:1;fill-rule:nonzero;stroke:none"
         id="path4012"
         inkscape:connector-curvature="0" /></g><g
       id="g4014"
       transform="matrix(3.2597787,0,0,3.2597787,735.64934,631.36632)"
       style="fill:#005382;fill-opacity:1"><path
         d="m 0,0 5.965,2.678 v -6.812 h 5.404 V -9.302 H 5.965 v -10.196 c 0,-2.302 0.987,-3.805 4.464,-3.805 0.659,0 1.411,0.046 2.068,0.094 l -1.457,-5.357 c -0.564,-0.14 -1.597,-0.187 -2.35,-0.187 -5.026,0 -8.69,2.678 -8.69,7.986 v 11.465 h -6.407 l 1.315,5.168 H 0 Z"
         style="fill:#005382;fill-opacity:1;fill-rule:nonzero;stroke:none"
         id="path4016"
         inkscape:connector-curvature="0" /></g><g
       id="g4018"
       transform="matrix(3.2597787,0,0,3.2597787,810.99651,553.86769)"
       style="fill:#005382;fill-opacity:1"><path
         d="M 0,0 C 2.115,0 4.371,1.27 4.371,3.431 4.371,5.546 2.115,6.862 0,6.862 -2.113,6.862 -4.368,5.546 -4.368,3.431 -4.368,1.27 -2.113,0 0,0 m -5.779,19.734 c 2.255,0.424 4.606,0.658 6.908,0.658 4.275,0 8.974,-1.88 8.974,-6.718 V -4.227 L 4.652,-4.792 v 2.068 c -1.645,-1.409 -3.758,-2.255 -5.968,-2.255 -5.073,0 -9.021,2.959 -9.021,8.41 0,4.321 3.62,8.128 8.082,8.128 2.584,0 4.275,-0.422 6.579,-1.598 0.047,0.517 0.141,0.987 0.141,1.598 0,3.242 -2.35,3.853 -5.122,3.853 -2.35,0 -4.605,-0.564 -6.766,-1.411 z"
         style="fill:#005382;fill-opacity:1;fill-rule:nonzero;stroke:none"
         id="path4020"
         inkscape:connector-curvature="0" /></g><g
       id="g4022"
       transform="matrix(3.2597787,0,0,3.2597787,858.9358,617.89137)"
       style="fill:#005382;fill-opacity:1"><path
         d="M 0,0 5.639,0.563 V -2.725 H 5.733 C 7.752,0 9.727,0.752 13.061,0.752 c 4.934,0 8.223,-3.149 8.223,-8.222 v -16.397 l -5.968,-0.377 v 15.176 c 0,2.538 -1.174,4.652 -3.852,4.652 -3.758,0 -5.497,-2.866 -5.497,-5.873 V -23.867 L 0,-24.244 Z"
         style="fill:#005382;fill-opacity:1;fill-rule:nonzero;stroke:none"
         id="path4024"
         inkscape:connector-curvature="0" /></g><g
       id="g4026"
       transform="matrix(3.2597787,0,0,3.2597787,311.58212,489.53857)"
       style="fill:#ea7120;fill-opacity:1"><path
         d="M 0,0 C -2.067,2.802 -1.474,6.748 1.325,8.817 4.123,10.884 8.07,10.292 10.137,7.493 12.206,4.694 11.613,0.746 8.812,-1.325 6.013,-3.391 2.067,-2.798 0,0"
         style="fill:#ea7120;fill-opacity:1;fill-rule:nonzero;stroke:none"
         id="path4028"
         inkscape:connector-curvature="0" /></g><g
       id="g4030"
       transform="matrix(3.2597787,0,0,3.2597787,245.11133,653.8011)"
       style="fill:#ea7120;fill-opacity:1"><path
         d="M 0,0 C 0.644,-1.233 0.172,-2.756 -1.067,-3.404 -2.298,-4.049 -3.824,-3.565 -4.466,-2.341 -5.114,-1.103 -4.638,0.42 -3.4,1.065 -2.169,1.709 -0.644,1.232 0,0"
         style="fill:#ea7120;fill-opacity:1;fill-rule:nonzero;stroke:none"
         id="path4032"
         inkscape:connector-curvature="0" /></g><g
       id="g4034"
       transform="matrix(3.2597787,0,0,3.2597787,210.44847,628.42991)"
       style="fill:#ea7120;fill-opacity:1"><path
         d="M 0,0 C 1.47,-0.927 1.908,-2.876 0.97,-4.351 0.04,-5.818 -1.901,-6.249 -3.372,-5.322 -4.844,-4.388 -5.279,-2.441 -4.345,-0.973 -3.417,0.496 -1.47,0.931 0,0"
         style="fill:#ea7120;fill-opacity:1;fill-rule:nonzero;stroke:none"
         id="path4036"
         inkscape:connector-curvature="0" /></g><g
       id="g4038"
       transform="matrix(3.2597787,0,0,3.2597787,192.11873,589.4635)"
       style="fill:#ea7120;fill-opacity:1"><path
         d="m 0,0 c 2.083,-0.09 3.704,-1.848 3.617,-3.943 -0.088,-2.079 -1.847,-3.7 -3.931,-3.611 -2.09,0.081 -3.707,1.838 -3.621,3.929 C -3.845,-1.537 -2.092,0.081 0,0"
         style="fill:#ea7120;fill-opacity:1;fill-rule:nonzero;stroke:none"
         id="path4040"
         inkscape:connector-curvature="0" /></g><g
       id="g4042"
       transform="matrix(3.2597787,0,0,3.2597787,194.67245,546.29197)"
       style="fill:#ea7120;fill-opacity:1"><path
         d="M 0,0 C 2.162,1.135 4.824,0.296 5.959,-1.865 7.091,-4.017 6.251,-6.69 4.09,-7.82 1.936,-8.947 -0.728,-8.113 -1.865,-5.955 -2.994,-3.794 -2.161,-1.13 0,0"
         style="fill:#ea7120;fill-opacity:1;fill-rule:nonzero;stroke:none"
         id="path4044"
         inkscape:connector-curvature="0" /></g><g
       id="g4046"
       transform="matrix(3.2597787,0,0,3.2597787,217.70278,509.48385)"
       style="fill:#ea7120;fill-opacity:1"><path
         d="M 0,0 C 1.494,2.351 4.604,3.045 6.963,1.55 9.316,0.063 10.002,-3.046 8.512,-5.399 7.021,-7.752 3.916,-8.453 1.565,-6.958 -0.795,-5.462 -1.485,-2.354 0,0"
         style="fill:#ea7120;fill-opacity:1;fill-rule:nonzero;stroke:none"
         id="path4048"
         inkscape:connector-curvature="0" /></g><g
       id="g4050"
       transform="matrix(3.2597787,0,0,3.2597787,260.21258,488.09546)"
       style="fill:#ea7120;fill-opacity:1"><path
         d="M 0,0 C 0.124,3.128 2.77,5.56 5.905,5.431 9.031,5.307 11.458,2.656 11.329,-0.474 11.199,-3.601 8.564,-6.029 5.433,-5.906 2.3,-5.773 -0.134,-3.13 0,0"
         style="fill:#ea7120;fill-opacity:1;fill-rule:nonzero;stroke:none"
         id="path4052"
         inkscape:connector-curvature="0" /></g><g
       id="g4054"
       transform="matrix(3.2597787,0,0,3.2597787,286.35568,665.71102)"
       style="fill:#ea7120;fill-opacity:1"><path
         d="m 0,0 c 0.644,-1.233 0.172,-2.758 -1.067,-3.406 -1.231,-0.644 -2.757,-0.163 -3.399,1.065 -0.648,1.239 -0.171,2.76 1.067,3.405 C -2.169,1.708 -0.644,1.231 0,0"
         style="fill:#ea7120;fill-opacity:1;fill-rule:nonzero;stroke:none"
         id="path4056"
         inkscape:connector-curvature="0" /></g><g
       id="g4062"
       transform="matrix(3.2597787,0,0,3.2597787,320.09667,654.16749)"
       style="fill:#ea7120;fill-opacity:1"><path
         d="m 0,0 c 0.708,-0.961 0.509,-2.314 -0.455,-3.026 -0.958,-0.71 -2.315,-0.501 -3.02,0.453 -0.712,0.965 -0.509,2.318 0.454,3.025 C -2.063,1.161 -0.707,0.958 0,0"
         style="fill:#ea7120;fill-opacity:1;fill-rule:nonzero;stroke:none"
         id="path4064"
         inkscape:connector-curvature="0" /></g><g
       id="g4066"
       transform="matrix(3.2597787,0,0,3.2597787,525.71601,484.65542)"
       style="fill:#0082c8;fill-opacity:1"><path
         d="m 0,0 v 11.124 l 1.51,0.26 V 1.46 H 5.992 L 5.377,0 Z"
         style="fill:#0082c8;fill-opacity:1;fill-rule:nonzero;stroke:none"
         id="path4068"
         inkscape:connector-curvature="0" /></g><g
       id="g4070"
       transform="matrix(3.2597787,0,0,3.2597787,548.16056,483.80951)"
       style="fill:#0082c8;fill-opacity:1"><path
         d="m 0,0 v 8.465 l 1.479,0.26 V 0.26 Z M 0.724,11.854 1.709,10.622 0.755,9.405 -0.231,10.622 Z"
         style="fill:#0082c8;fill-opacity:1;fill-rule:nonzero;stroke:none"
         id="path4072"
         inkscape:connector-curvature="0" /></g><g
       id="g4074"
       transform="matrix(3.2597787,0,0,3.2597787,559.51013,506.9096)"
       style="fill:#0082c8;fill-opacity:1"><path
         d="m 0,0 h -1.017 l 0.431,1.379 H 0 C -0.031,3.844 1.294,4.638 3.373,4.638 L 3.836,3.162 C 3.573,3.228 3.326,3.26 3.08,3.26 1.972,3.26 1.479,2.741 1.479,1.379 H 3.45 V 0 H 1.479 V -6.827 L 0,-7.087 Z"
         style="fill:#0082c8;fill-opacity:1;fill-rule:nonzero;stroke:none"
         id="path4076"
         inkscape:connector-curvature="0" /></g><g
       id="g4078"
       transform="matrix(3.2597787,0,0,3.2597787,589.98939,505.74716)"
       style="fill:#0082c8;fill-opacity:1"><path
         d="m 0,0 c -0.339,0.405 -0.831,0.535 -1.355,0.535 -1.68,0 -2.711,-1.427 -2.527,-3.129 z m -3.45,-3.94 c 0.492,-0.828 1.216,-1.329 2.141,-1.329 1.062,0 2.094,0.761 2.896,1.426 L 1.88,-5.481 C 0.909,-6.194 0,-6.73 -1.216,-6.73 c -2.512,0 -4.144,1.979 -4.144,4.589 0,2.238 1.817,4.136 3.896,4.136 1.664,0 2.649,-0.794 3.498,-2.255 z"
         style="fill:#0082c8;fill-opacity:1;fill-rule:nonzero;stroke:none"
         id="path4080"
         inkscape:connector-curvature="0" /></g><g
       id="g4082"
       transform="matrix(3.2597787,0,0,3.2597787,615.79901,518.59428)"
       style="fill:#0082c8;fill-opacity:1"><path
         d="M 0,0 0.94,1.183 1.941,0 1.016,-1.266 Z m -2.002,-11.935 h 0.477 c 1.187,0 1.756,0.421 1.756,1.264 v 8.465 l 1.479,0.26 v -8.887 c 0,-1.766 -1.324,-2.529 -2.587,-2.562 -0.201,0 -0.402,0.017 -0.602,0.049 z"
         style="fill:#0082c8;fill-opacity:1;fill-rule:nonzero;stroke:none"
         id="path4084"
         inkscape:connector-curvature="0" /></g><g
       id="g4086"
       transform="matrix(3.2597787,0,0,3.2597787,650.04527,512.25042)"
       style="fill:#0082c8;fill-opacity:1"><path
         d="m 0,0 v -8.465 l -1.448,-0.26 v 1.217 h -0.031 c -0.477,-0.843 -1.417,-1.217 -2.342,-1.217 -1.586,0 -3.066,0.795 -3.066,2.757 V -0.26 L -5.407,0 v -5.741 c 0,-1.215 0.816,-1.605 1.725,-1.605 1.171,0 2.203,0.746 2.203,2.513 v 4.573 z"
         style="fill:#0082c8;fill-opacity:1;fill-rule:nonzero;stroke:none"
         id="path4088"
         inkscape:connector-curvature="0" /></g><g
       id="g4090"
       transform="matrix(3.2597787,0,0,3.2597787,657.27644,491.26527)"
       style="fill:#0082c8;fill-opacity:1"><path
         d="m 0,0 c 0.447,-0.552 0.893,-0.908 1.632,-0.908 0.585,0 1.309,0.307 1.309,1.037 0,2.125 -3.835,0.65 -3.835,3.714 0,1.524 1.109,2.594 2.526,2.594 1.094,0 1.741,-0.341 2.526,-1.151 L 3.281,4.264 C 2.818,4.767 2.465,5.059 1.786,5.059 1.155,5.059 0.585,4.832 0.585,4.053 c 0,-1.848 3.836,-0.47 3.836,-3.729 0,-1.59 -1.263,-2.611 -2.696,-2.611 -1.155,0 -2.034,0.406 -2.742,1.379 z"
         style="fill:#0082c8;fill-opacity:1;fill-rule:nonzero;stroke:none"
         id="path4092"
         inkscape:connector-curvature="0" /></g><g
       id="g4094"
       transform="matrix(3.2597787,0,0,3.2597787,688.909,506.9096)"
       style="fill:#0082c8;fill-opacity:1"><path
         d="m 0,0 h -2.079 v -4.346 c 0,-1.037 0.308,-1.361 1.386,-1.361 0.339,0 0.662,0.064 0.986,0.098 L 0.031,-7.021 c -0.293,-0.032 -0.554,-0.066 -1.187,-0.066 -1.37,0 -2.402,1.039 -2.402,2.514 V 0 h -1.217 l 0.524,1.379 h 0.693 v 2.01 l 1.479,0.373 V 1.379 H 0 Z"
         style="fill:#0082c8;fill-opacity:1;fill-rule:nonzero;stroke:none"
         id="path4096"
         inkscape:connector-curvature="0" /></g><g
       id="g4098"
       transform="matrix(3.2597787,0,0,3.2597787,722.45375,502.41828)"
       style="fill:#0082c8;fill-opacity:1"><path
         d="M 0,0 C 0,1.102 -0.785,1.702 -1.787,1.702 -2.743,1.702 -3.62,1.135 -3.62,0 c 0,-1.103 0.662,-1.833 1.833,-1.833 C -0.816,-1.833 0,-1.12 0,0 m -4.052,-5.579 c 0.555,-0.924 1.186,-1.475 2.265,-1.475 1.109,0 2.079,0.68 2.079,1.832 0,1.443 -1.032,2.076 -2.079,2.076 -0.771,0 -1.34,-0.243 -1.895,-0.601 l 0.277,1.152 c -1.201,0.422 -1.694,1.443 -1.694,2.709 0,1.929 1.586,2.837 2.881,2.902 1.17,0.064 1.709,0.08 2.233,0.178 0.524,0.098 1.048,0.292 1.74,0.551 L 1.417,2.222 0.493,1.978 C 1.155,1.54 1.479,0.892 1.479,0 c 0,-1.12 -0.601,-2.012 -1.618,-2.383 v -0.033 c 1.186,-0.438 1.911,-1.412 1.911,-2.757 0,-2.157 -1.757,-3.259 -3.559,-3.259 -1.526,0 -2.527,0.713 -3.359,1.945 z"
         style="fill:#0082c8;fill-opacity:1;fill-rule:nonzero;stroke:none"
         id="path4100"
         inkscape:connector-curvature="0" /></g><g
       id="g4102"
       transform="matrix(3.2597787,0,0,3.2597787,745.20016,507.49147)"
       style="fill:#0082c8;fill-opacity:1"><path
         d="m 0,0 c -1.54,0 -2.757,-1.313 -2.757,-2.902 0,-1.59 1.217,-2.903 2.757,-2.903 1.556,0 2.774,1.313 2.774,2.903 C 2.774,-1.313 1.556,0 0,0 m 4.251,-2.902 c 0,-2.465 -1.94,-4.363 -4.251,-4.363 -2.311,0 -4.237,1.898 -4.237,4.363 0,2.464 1.926,4.362 4.237,4.362 2.311,0 4.251,-1.898 4.251,-4.362"
         style="fill:#0082c8;fill-opacity:1;fill-rule:nonzero;stroke:none"
         id="path4104"
         inkscape:connector-curvature="0" /></g><g
       id="g4106"
       transform="matrix(3.2597787,0,0,3.2597787,776.78481,506.9096)"
       style="fill:#0082c8;fill-opacity:1"><path
         d="m 0,0 h -2.08 v -4.346 c 0,-1.037 0.308,-1.361 1.386,-1.361 0.339,0 0.663,0.064 0.986,0.098 L 0.03,-7.021 c -0.292,-0.032 -0.554,-0.066 -1.186,-0.066 -1.37,0 -2.402,1.039 -2.402,2.514 V 0 h -1.218 l 0.524,1.379 h 0.694 v 2.01 L -2.08,3.762 V 1.379 H 0 Z"
         style="fill:#0082c8;fill-opacity:1;fill-rule:nonzero;stroke:none"
         id="path4108"
         inkscape:connector-curvature="0" /></g><g
       id="g4110"
       transform="matrix(3.2597787,0,0,3.2597787,811.48255,505.74716)"
       style="fill:#0082c8;fill-opacity:1"><path
         d="m 0,0 c -0.339,0.405 -0.832,0.535 -1.355,0.535 -1.68,0 -2.711,-1.427 -2.527,-3.129 z m -3.451,-3.94 c 0.493,-0.828 1.217,-1.329 2.142,-1.329 1.062,0 2.094,0.761 2.896,1.426 L 1.879,-5.481 C 0.909,-6.194 0,-6.73 -1.216,-6.73 c -2.512,0 -4.145,1.979 -4.145,4.589 0,2.238 1.818,4.136 3.897,4.136 1.664,0 2.649,-0.794 3.498,-2.255 z"
         style="fill:#0082c8;fill-opacity:1;fill-rule:nonzero;stroke:none"
         id="path4112"
         inkscape:connector-curvature="0" /></g><g
       id="g4114"
       transform="matrix(3.2597787,0,0,3.2597787,826.54664,494.2258)"
       style="fill:#0082c8;fill-opacity:1"><path
         d="m 0,0 c 0,-1.152 0.631,-1.735 1.694,-1.735 1.017,0 1.91,0.405 1.91,1.735 0,1.038 -0.878,1.524 -1.802,1.524 C 0.924,1.524 0,1.07 0,0 M 3.758,-3.195 V -2.06 H 3.727 c -0.446,-0.924 -1.371,-1.135 -2.31,-1.135 -1.756,0 -2.896,1.379 -2.896,3.195 0,1.815 1.525,2.902 3.112,2.902 0.739,0 1.463,-0.227 1.971,-0.794 v 0.633 c 0,1.215 -0.693,1.328 -1.849,1.328 -0.646,0 -1.478,-0.048 -2.279,-0.47 l 0.4,1.606 c 0.539,0.113 1.402,0.324 2.126,0.324 2.095,0 3.081,-0.876 3.081,-3.081 v -5.384 z"
         style="fill:#0082c8;fill-opacity:1;fill-rule:nonzero;stroke:none"
         id="path4116"
         inkscape:connector-curvature="0" /></g><g
       id="g4118"
       transform="matrix(3.2597787,0,0,3.2597787,850.1458,491.26527)"
       style="fill:#0082c8;fill-opacity:1"><path
         d="m 0,0 c 0.447,-0.552 0.894,-0.908 1.633,-0.908 0.586,0 1.31,0.307 1.31,1.037 0,2.125 -3.837,0.65 -3.837,3.714 0,1.524 1.11,2.594 2.527,2.594 1.094,0 1.741,-0.341 2.527,-1.151 L 3.282,4.264 C 2.819,4.767 2.465,5.059 1.787,5.059 1.156,5.059 0.586,4.832 0.586,4.053 c 0,-1.848 3.835,-0.47 3.835,-3.729 0,-1.59 -1.263,-2.611 -2.695,-2.611 -1.156,0 -2.033,0.406 -2.742,1.379 z"
         style="fill:#0082c8;fill-opacity:1;fill-rule:nonzero;stroke:none"
         id="path4120"
         inkscape:connector-curvature="0" /></g><g
       id="g4122"
       transform="matrix(3.2597787,0,0,3.2597787,869.07729,483.80951)"
       style="fill:#0082c8;fill-opacity:1"><path
         d="m 0,0 v 8.465 l 1.479,0.26 V 0.26 Z M 0.724,11.854 1.709,10.622 0.755,9.405 -0.231,10.622 Z"
         style="fill:#0082c8;fill-opacity:1;fill-rule:nonzero;stroke:none"
         id="path4124"
         inkscape:connector-curvature="0" /></g><g
       id="g4126"
       transform="matrix(3.2597787,0,0,3.2597787,896.59406,505.74716)"
       style="fill:#0082c8;fill-opacity:1"><path
         d="m 0,0 c -0.338,0.405 -0.832,0.535 -1.356,0.535 -1.679,0 -2.711,-1.427 -2.526,-3.129 z m -3.451,-3.94 c 0.494,-0.828 1.217,-1.329 2.142,-1.329 1.063,0 2.094,0.761 2.895,1.426 L 1.879,-5.481 C 0.908,-6.194 0,-6.73 -1.217,-6.73 c -2.511,0 -4.144,1.979 -4.144,4.589 0,2.238 1.818,4.136 3.898,4.136 1.664,0 2.649,-0.794 3.496,-2.255 z"
         style="fill:#0082c8;fill-opacity:1;fill-rule:nonzero;stroke:none"
         id="path4128"
         inkscape:connector-curvature="0" /></g><g
       id="g4130"
       transform="matrix(3.2597787,0,0,3.2597787,908.39251,483.80951)"
       style="fill:#0082c8;fill-opacity:1"><path
         d="m 0,0 v 8.465 l 1.387,0.26 V 6.956 H 1.418 C 1.865,7.995 2.619,8.757 3.821,8.757 H 4.56 L 3.945,7.2 C 2.619,7.282 1.479,6.26 1.479,4.136 V 0.26 Z"
         style="fill:#0082c8;fill-opacity:1;fill-rule:nonzero;stroke:none"
         id="path4132"
         inkscape:connector-curvature="0" /></g><g
       id="g4134"
       transform="matrix(3.2597787,0,0,3.2597787,922.75476,488.72753)"
       style="fill:#0082c8;fill-opacity:1"><path
         d="m 0,0 1.002,1.394 1,-1.394 -1,-1.395 z"
         style="fill:#0082c8;fill-opacity:1;fill-rule:nonzero;stroke:none"
         id="path4136"
         inkscape:connector-curvature="0" /></g></g></svg>